<svg xmlns="http://www.w3.org/2000/svg" width="720" height="180" viewBox="0 0 720 180" role="img" aria-label="YiShen Global">
  <defs>
    <linearGradient id="g1" x1="0" y1="0" x2="1" y2="1">
      <stop offset="0" stop-color="#7DE3FF"></stop>
      <stop offset="0.45" stop-color="#2CB7FF"></stop>
      <stop offset="1" stop-color="#0A63FF"></stop>
    </linearGradient>
    <radialGradient id="g2" cx="35%" cy="30%" r="70%">
      <stop offset="0" stop-color="#B9F2FF" stop-opacity="1"></stop>
      <stop offset="0.35" stop-color="#2CB7FF" stop-opacity="0.95"></stop>
      <stop offset="1" stop-color="#06122A" stop-opacity="1"></stop>
    </radialGradient>
    <filter id="glow" x="-40%" y="-40%" width="180%" height="180%">
      <feGaussianBlur stdDeviation="4" result="b"></feGaussianBlur>
      <feMerge>
        <feMergeNode in="b"></feMergeNode>
        <feMergeNode in="SourceGraphic"></feMergeNode>
      </feMerge>
    </filter>
  </defs>

  <!-- MARK -->
  <g transform="translate(40,22)">
    <!-- core sphere -->
    <path d="M68,0 C105.6,0 136,30.4 136,68 C136,105.6 105.6,136 68,136 C30.4,136 0,105.6 0,68 C0,30.4 30.4,0 68,0 Z" fill="url(#g2)"></path>
    <!-- orbit strokes (all paths) -->
    <path d="M12,78 C34,40 72,20 112,26 C126,28 136,34 136,34
             C132,28 120,18 100,12 C62,0 24,22 10,52 C2,70 2,86 12,96
             C8,92 6,86 6,80 C6,80 7,84 12,78 Z" fill="url(#g1)" opacity="0.92" filter="url(#glow)"></path>
    <path d="M18,100 C44,120 82,124 112,106 C128,96 136,82 136,82
             C132,100 118,116 96,126 C58,142 18,124 6,92 C2,80 4,66 14,56
             C10,62 8,70 10,78 C10,78 12,90 18,100 Z" fill="url(#g1)" opacity="0.9" filter="url(#glow)"></path>
    <path d="M24,56 C44,34 72,26 102,34 C122,40 136,54 136,54
             C126,44 112,36 96,32 C68,24 42,34 26,52 C18,62 16,72 18,82
             C18,72 20,64 24,56 Z" fill="url(#g1)" opacity="0.85" filter="url(#glow)"></path>
  </g>

  <!-- WORDMARK (geometric outlines, no font dependency) -->
  <g transform="translate(210,62)" fill="#EAF2FF">
    <!-- YiShen -->
    <path d="M0,0 h10 v56 h-10 z"></path>
    <path d="M24,0 h10 v34 c0,8 5,13 13,13 c8,0 13-5 13-13 v-34 h10 v36 c0,14-10,24-23,24 c-13,0-23-10-23-24 z"></path>
    <path d="M92,0 h10 v56 h-10 z"></path>
    <path d="M122,0 h10 v22 h24 v-22 h10 v56 h-10 v-24 h-24 v24 h-10 z"></path>
    <path d="M186,0 h10 v56 h-10 z"></path>
    <path d="M214,0 h40 v10 h-30 v12 h26 v10 h-26 v14 h30 v10 h-40 z"></path>

    <!-- Global (smaller) -->
    <g transform="translate(0,78)" fill="#9FB6D9">
      <path d="M0,0 h34 v8 h-26 v10 h22 v8 h-22 v12 h26 v8 h-34 z"></path>
      <path d="M48,0 h8 v46 h-8 z"></path>
      <path d="M70,0 h8 v46 h-8 z"></path>
      <path d="M92,0 h30 v8 h-22 v38 h-8 z"></path>
      <path d="M136,0 h8 v18 h18 v-18 h8 v46 h-8 v-20 h-18 v20 h-8 z"></path>
      <path d="M178,0 h32 v8 h-24 v10 h22 v8 h-22 v12 h24 v8 h-32 z"></path>
    </g>
  </g>
</svg>
